G04 #@! TF.GenerationSoftware,KiCad,Pcbnew,(6.0.7)*
G04 #@! TF.CreationDate,2023-02-21T22:38:56+09:00*
G04 #@! TF.ProjectId,OmniDirectional_UAV,4f6d6e69-4469-4726-9563-74696f6e616c,rev?*
G04 #@! TF.SameCoordinates,Original*
G04 #@! TF.FileFunction,Paste,Bot*
G04 #@! TF.FilePolarity,Positive*
%FSLAX46Y46*%
G04 Gerber Fmt 4.6, Leading zero omitted, Abs format (unit mm)*
G04 Created by KiCad (PCBNEW (6.0.7)) date 2023-02-21 22:38:56*
%MOMM*%
%LPD*%
G01*
G04 APERTURE LIST*
G04 Aperture macros list*
%AMRoundRect*
0 Rectangle with rounded corners*
0 $1 Rounding radius*
0 $2 $3 $4 $5 $6 $7 $8 $9 X,Y pos of 4 corners*
0 Add a 4 corners polygon primitive as box body*
4,1,4,$2,$3,$4,$5,$6,$7,$8,$9,$2,$3,0*
0 Add four circle primitives for the rounded corners*
1,1,$1+$1,$2,$3*
1,1,$1+$1,$4,$5*
1,1,$1+$1,$6,$7*
1,1,$1+$1,$8,$9*
0 Add four rect primitives between the rounded corners*
20,1,$1+$1,$2,$3,$4,$5,0*
20,1,$1+$1,$4,$5,$6,$7,0*
20,1,$1+$1,$6,$7,$8,$9,0*
20,1,$1+$1,$8,$9,$2,$3,0*%
G04 Aperture macros list end*
%ADD10RoundRect,0.150000X0.150000X0.625000X-0.150000X0.625000X-0.150000X-0.625000X0.150000X-0.625000X0*%
%ADD11RoundRect,0.250000X0.350000X0.650000X-0.350000X0.650000X-0.350000X-0.650000X0.350000X-0.650000X0*%
%ADD12RoundRect,0.250000X-0.350000X-0.650000X0.350000X-0.650000X0.350000X0.650000X-0.350000X0.650000X0*%
%ADD13RoundRect,0.150000X-0.150000X-0.625000X0.150000X-0.625000X0.150000X0.625000X-0.150000X0.625000X0*%
G04 APERTURE END LIST*
D10*
X127675000Y-77114100D03*
X126675000Y-77114100D03*
X125675000Y-77114100D03*
X124675000Y-77114100D03*
X123675000Y-77114100D03*
X122675000Y-77114100D03*
X121675000Y-77114100D03*
X120675000Y-77114100D03*
D11*
X128975000Y-80989100D03*
X119375000Y-80989100D03*
D12*
X164200000Y-65799100D03*
X169800000Y-65799100D03*
D13*
X168500000Y-69674100D03*
X167500000Y-69674100D03*
X166500000Y-69674100D03*
X165500000Y-69674100D03*
D11*
X172538000Y-79709100D03*
X159938000Y-79709100D03*
D10*
X161238000Y-75834100D03*
X162238000Y-75834100D03*
X163238000Y-75834100D03*
X164238000Y-75834100D03*
X165238000Y-75834100D03*
X166238000Y-75834100D03*
X167238000Y-75834100D03*
X168238000Y-75834100D03*
X169238000Y-75834100D03*
X170238000Y-75834100D03*
X171238000Y-75834100D03*
D12*
X129043000Y-107747100D03*
X119443000Y-107747100D03*
D13*
X127743000Y-111622100D03*
X126743000Y-111622100D03*
X125743000Y-111622100D03*
X124743000Y-111622100D03*
X123743000Y-111622100D03*
X122743000Y-111622100D03*
X121743000Y-111622100D03*
X120743000Y-111622100D03*
D11*
X160155000Y-121839100D03*
X165755000Y-121839100D03*
D10*
X161455000Y-117964100D03*
X162455000Y-117964100D03*
X163455000Y-117964100D03*
X164455000Y-117964100D03*
D11*
X123475000Y-121149100D03*
X129075000Y-121149100D03*
D10*
X124775000Y-117274100D03*
X125775000Y-117274100D03*
X126775000Y-117274100D03*
X127775000Y-117274100D03*
D13*
X120445000Y-72002100D03*
X121445000Y-72002100D03*
X122445000Y-72002100D03*
X123445000Y-72002100D03*
X124445000Y-72002100D03*
X125445000Y-72002100D03*
X126445000Y-72002100D03*
X127445000Y-72002100D03*
X128445000Y-72002100D03*
X129445000Y-72002100D03*
X130445000Y-72002100D03*
D12*
X131745000Y-68127100D03*
X119145000Y-68127100D03*
X165755000Y-108437100D03*
X160155000Y-108437100D03*
D13*
X164455000Y-112312100D03*
X163455000Y-112312100D03*
X162455000Y-112312100D03*
X161455000Y-112312100D03*
M02*
