M48
; DRILL file {KiCad (6.0.7)} date Tue Feb 21 22:39:01 2023
; FORMAT={-:-/ absolute / metric / decimal}
; #@! TF.CreationDate,2023-02-21T22:39:01+09:00
; #@! TF.GenerationSoftware,Kicad,Pcbnew,(6.0.7)
; #@! TF.FileFunction,MixedPlating,1,2
FMAT,2
METRIC
; #@! TA.AperFunction,Plated,PTH,ViaDrill
T1C0.400
; #@! TA.AperFunction,Plated,PTH,ComponentDrill
T2C0.500
; #@! TA.AperFunction,Plated,PTH,ComponentDrill
T3C0.600
; #@! TA.AperFunction,Plated,PTH,ComponentDrill
T4C0.700
; #@! TA.AperFunction,Plated,PTH,ComponentDrill
T5C1.000
%
G90
G05
T1
X110.625Y-75.5
X111.25Y-68.525
X113.874Y-71.874
X114.15Y-123.075
X114.3Y-108.35
X114.619Y-77.607
X114.725Y-112.9
X114.725Y-117.65
X115.286Y-73.131
X115.291Y-81.577
X115.686Y-70.103
X115.75Y-123.075
X115.9Y-108.175
X116.14Y-79.495
X116.349Y-73.116
X116.708Y-84.483
X117.006Y-77.545
X117.423Y-82.979
X117.583Y-81.528
X117.614Y-66.396
X118.325Y-69.525
X118.381Y-82.283
X118.747Y-83.675
X119.2Y-118.814
X119.667Y-85.427
X119.815Y-84.347
X119.899Y-76.029
X119.903Y-73.35
X120.0Y-124.775
X120.491Y-75.133
X120.598Y-74.111
X120.633Y-110.082
X120.686Y-109.062
X120.75Y-123.175
X120.925Y-101.975
X121.289Y-113.182
X121.375Y-70.725
X121.65Y-107.65
X121.7Y-127.95
X121.753Y-73.856
X121.945Y-75.041
X122.864Y-85.217
X123.264Y-82.283
X124.275Y-119.515
X124.323Y-78.813
X124.425Y-70.6
X124.935Y-118.657
X125.649Y-70.611
X126.3Y-101.8
X126.3Y-128.1
X126.669Y-70.45
X126.908Y-114.903
X126.936Y-75.064
X127.914Y-86.185
X128.118Y-73.904
X128.275Y-78.35
X128.513Y-82.5
X128.626Y-76.61
X128.968Y-87.232
X129.143Y-86.36
X129.294Y-69.751
X129.864Y-79.07
X131.05Y-127.95
X131.256Y-73.581
X131.3Y-74.675
X131.525Y-101.8
X131.564Y-109.114
X131.589Y-70.94
X131.675Y-118.814
X131.75Y-83.5
X131.75Y-122.0
X131.925Y-76.525
X132.301Y-107.279
X132.529Y-115.666
X132.54Y-79.591
X132.8Y-75.9
X132.816Y-106.366
X132.95Y-119.925
X133.604Y-113.056
X133.645Y-78.966
X133.75Y-83.575
X133.85Y-89.6
X134.225Y-81.275
X134.693Y-86.603
X135.504Y-118.814
X135.607Y-116.392
X135.832Y-81.511
X136.682Y-111.311
X137.025Y-123.1
X137.15Y-82.15
X137.287Y-86.571
X138.475Y-122.925
X139.3Y-66.775
X139.673Y-74.179
X140.4Y-84.375
X141.554Y-116.392
X151.65Y-114.475
X151.825Y-111.0
X151.825Y-119.075
X154.675Y-67.65
X155.15Y-77.4
X155.3Y-73.6
X155.553Y-116.669
X156.075Y-67.275
X156.207Y-83.427
X157.806Y-70.165
X158.475Y-64.25
X159.313Y-70.78
X159.764Y-118.56
X160.36Y-71.596
X160.746Y-84.757
X160.897Y-65.299
X160.906Y-82.594
X161.0Y-101.65
X161.175Y-129.85
X161.325Y-88.65
X161.425Y-70.19
X161.8Y-61.4
X162.144Y-110.427
X162.4Y-80.217
X162.8Y-126.65
X162.861Y-74.37
X163.435Y-120.205
X163.463Y-69.721
X163.675Y-124.25
X163.875Y-121.675
X163.972Y-73.051
X164.667Y-74.455
X165.175Y-114.675
X166.075Y-101.975
X166.093Y-66.778
X166.225Y-61.4
X166.225Y-88.65
X167.163Y-77.212
X169.281Y-72.817
X169.95Y-122.2
X170.552Y-72.025
X170.733Y-81.303
X170.793Y-74.23
X171.15Y-101.975
X171.3Y-129.85
X171.475Y-61.4
X171.475Y-88.65
X171.744Y-68.878
X171.806Y-67.326
X172.377Y-81.303
X172.875Y-120.375
X173.329Y-75.834
X173.677Y-84.348
X175.575Y-127.95
X176.7Y-73.275
X176.7Y-76.775
X177.153Y-69.813
X177.7Y-82.525
X177.975Y-68.125
X179.1Y-82.3
X179.25Y-67.5
X181.3Y-112.9
X181.6Y-117.175
X181.775Y-121.3
T2
X165.025Y-124.222
X165.025Y-125.922
X165.025Y-127.622
X166.125Y-124.222
X166.125Y-127.622
X167.275Y-124.222
X167.275Y-125.922
X167.275Y-127.622
X168.425Y-124.222
X168.425Y-125.922
X168.425Y-127.622
X169.525Y-124.222
X169.525Y-125.922
X169.525Y-127.622
T3
X118.147Y-107.368
X118.147Y-108.368
X118.147Y-109.368
X118.25Y-121.83
X118.25Y-122.83
X118.25Y-123.83
X134.554Y-121.83
X134.554Y-122.83
X134.554Y-123.83
X134.657Y-107.86
X134.657Y-108.86
X134.657Y-109.86
X158.721Y-81.406
X158.721Y-82.406
X158.721Y-83.406
X158.872Y-66.42
X158.872Y-67.42
X158.872Y-68.42
X175.128Y-66.878
X175.128Y-67.878
X175.128Y-68.878
X175.128Y-81.333
X175.128Y-82.333
X175.128Y-83.333
T4
X112.305Y-107.709
X112.305Y-108.979
X112.396Y-122.189
X112.396Y-123.459
X140.716Y-122.326
X140.716Y-123.596
X140.753Y-108.352
X140.753Y-109.622
X152.379Y-81.608
X152.379Y-82.878
X152.396Y-66.795
X152.396Y-68.065
X181.362Y-81.688
X181.362Y-82.958
X181.453Y-67.283
X181.453Y-68.553
T5
X117.894Y-61.38
X120.434Y-61.38
X122.974Y-61.38
X125.514Y-61.38
X177.825Y-110.344
X177.825Y-112.884
X177.825Y-115.424
X177.85Y-120.099
X177.85Y-122.639
T0
M30
