G04 #@! TF.GenerationSoftware,KiCad,Pcbnew,(6.0.7)*
G04 #@! TF.CreationDate,2023-02-21T22:38:56+09:00*
G04 #@! TF.ProjectId,OmniDirectional_UAV,4f6d6e69-4469-4726-9563-74696f6e616c,rev?*
G04 #@! TF.SameCoordinates,Original*
G04 #@! TF.FileFunction,Soldermask,Top*
G04 #@! TF.FilePolarity,Negative*
%FSLAX46Y46*%
G04 Gerber Fmt 4.6, Leading zero omitted, Abs format (unit mm)*
G04 Created by KiCad (PCBNEW (6.0.7)) date 2023-02-21 22:38:56*
%MOMM*%
%LPD*%
G01*
G04 APERTURE LIST*
G04 Aperture macros list*
%AMRoundRect*
0 Rectangle with rounded corners*
0 $1 Rounding radius*
0 $2 $3 $4 $5 $6 $7 $8 $9 X,Y pos of 4 corners*
0 Add a 4 corners polygon primitive as box body*
4,1,4,$2,$3,$4,$5,$6,$7,$8,$9,$2,$3,0*
0 Add four circle primitives for the rounded corners*
1,1,$1+$1,$2,$3*
1,1,$1+$1,$4,$5*
1,1,$1+$1,$6,$7*
1,1,$1+$1,$8,$9*
0 Add four rect primitives between the rounded corners*
20,1,$1+$1,$2,$3,$4,$5,0*
20,1,$1+$1,$4,$5,$6,$7,0*
20,1,$1+$1,$6,$7,$8,$9,0*
20,1,$1+$1,$8,$9,$2,$3,0*%
%AMFreePoly0*
4,1,14,0.266715,0.088284,0.363284,-0.008285,0.375000,-0.036569,0.375000,-0.060000,0.363284,-0.088284,0.335000,-0.100000,-0.335000,-0.100000,-0.363284,-0.088284,-0.375000,-0.060000,-0.375000,0.060000,-0.363284,0.088284,-0.335000,0.100000,0.238431,0.100000,0.266715,0.088284,0.266715,0.088284,$1*%
%AMFreePoly1*
4,1,14,0.363284,0.088284,0.375000,0.060000,0.375000,0.036569,0.363284,0.008285,0.266715,-0.088284,0.238431,-0.100000,-0.335000,-0.100000,-0.363284,-0.088284,-0.375000,-0.060000,-0.375000,0.060000,-0.363284,0.088284,-0.335000,0.100000,0.335000,0.100000,0.363284,0.088284,0.363284,0.088284,$1*%
%AMFreePoly2*
4,1,14,0.088284,0.363284,0.100000,0.335000,0.100000,-0.335000,0.088284,-0.363284,0.060000,-0.375000,-0.060000,-0.375000,-0.088284,-0.363284,-0.100000,-0.335000,-0.100000,0.238431,-0.088284,0.266715,0.008285,0.363284,0.036569,0.375000,0.060000,0.375000,0.088284,0.363284,0.088284,0.363284,$1*%
%AMFreePoly3*
4,1,14,-0.008285,0.363284,0.088284,0.266715,0.100000,0.238431,0.100000,-0.335000,0.088284,-0.363284,0.060000,-0.375000,-0.060000,-0.375000,-0.088284,-0.363284,-0.100000,-0.335000,-0.100000,0.335000,-0.088284,0.363284,-0.060000,0.375000,-0.036569,0.375000,-0.008285,0.363284,-0.008285,0.363284,$1*%
%AMFreePoly4*
4,1,14,0.363284,0.088284,0.375000,0.060000,0.375000,-0.060000,0.363284,-0.088284,0.335000,-0.100000,-0.238431,-0.100000,-0.266715,-0.088284,-0.363284,0.008285,-0.375000,0.036569,-0.375000,0.060000,-0.363284,0.088284,-0.335000,0.100000,0.335000,0.100000,0.363284,0.088284,0.363284,0.088284,$1*%
%AMFreePoly5*
4,1,14,0.363284,0.088284,0.375000,0.060000,0.375000,-0.060000,0.363284,-0.088284,0.335000,-0.100000,-0.335000,-0.100000,-0.363284,-0.088284,-0.375000,-0.060000,-0.375000,-0.036569,-0.363284,-0.008285,-0.266715,0.088284,-0.238431,0.100000,0.335000,0.100000,0.363284,0.088284,0.363284,0.088284,$1*%
%AMFreePoly6*
4,1,14,0.088284,0.363284,0.100000,0.335000,0.100000,-0.238431,0.088284,-0.266715,-0.008285,-0.363284,-0.036569,-0.375000,-0.060000,-0.375000,-0.088284,-0.363284,-0.100000,-0.335000,-0.100000,0.335000,-0.088284,0.363284,-0.060000,0.375000,0.060000,0.375000,0.088284,0.363284,0.088284,0.363284,$1*%
%AMFreePoly7*
4,1,14,0.088284,0.363284,0.100000,0.335000,0.100000,-0.335000,0.088284,-0.363284,0.060000,-0.375000,0.036569,-0.375000,0.008285,-0.363284,-0.088284,-0.266715,-0.100000,-0.238431,-0.100000,0.335000,-0.088284,0.363284,-0.060000,0.375000,0.060000,0.375000,0.088284,0.363284,0.088284,0.363284,$1*%
G04 Aperture macros list end*
%ADD10O,1.000000X1.000000*%
%ADD11R,1.000000X1.000000*%
%ADD12R,0.700000X1.100000*%
%ADD13R,0.800000X1.100000*%
%ADD14RoundRect,0.237500X0.237500X-0.300000X0.237500X0.300000X-0.237500X0.300000X-0.237500X-0.300000X0*%
%ADD15R,2.400000X1.450000*%
%ADD16RoundRect,0.150000X-0.150000X0.587500X-0.150000X-0.587500X0.150000X-0.587500X0.150000X0.587500X0*%
%ADD17O,1.700000X1.700000*%
%ADD18R,1.700000X1.700000*%
%ADD19RoundRect,0.237500X0.300000X0.237500X-0.300000X0.237500X-0.300000X-0.237500X0.300000X-0.237500X0*%
%ADD20C,0.600000*%
%ADD21R,0.900000X5.000000*%
%ADD22R,1.000000X0.280000*%
%ADD23R,1.050000X0.650000*%
%ADD24RoundRect,0.237500X-0.237500X0.287500X-0.237500X-0.287500X0.237500X-0.287500X0.237500X0.287500X0*%
%ADD25RoundRect,0.250000X-0.350000X-0.450000X0.350000X-0.450000X0.350000X0.450000X-0.350000X0.450000X0*%
%ADD26RoundRect,0.237500X-0.237500X0.300000X-0.237500X-0.300000X0.237500X-0.300000X0.237500X0.300000X0*%
%ADD27RoundRect,0.237500X-0.300000X-0.237500X0.300000X-0.237500X0.300000X0.237500X-0.300000X0.237500X0*%
%ADD28RoundRect,0.250000X-0.450000X0.350000X-0.450000X-0.350000X0.450000X-0.350000X0.450000X0.350000X0*%
%ADD29RoundRect,0.250000X0.450000X-0.350000X0.450000X0.350000X-0.450000X0.350000X-0.450000X-0.350000X0*%
%ADD30RoundRect,0.150000X-0.625000X0.150000X-0.625000X-0.150000X0.625000X-0.150000X0.625000X0.150000X0*%
%ADD31RoundRect,0.250000X-0.650000X0.350000X-0.650000X-0.350000X0.650000X-0.350000X0.650000X0.350000X0*%
%ADD32RoundRect,0.150000X0.150000X-0.587500X0.150000X0.587500X-0.150000X0.587500X-0.150000X-0.587500X0*%
%ADD33RoundRect,0.100000X0.100000X-0.175000X0.100000X0.175000X-0.100000X0.175000X-0.100000X-0.175000X0*%
%ADD34RoundRect,0.100000X0.175000X-0.100000X0.175000X0.100000X-0.175000X0.100000X-0.175000X-0.100000X0*%
%ADD35RoundRect,0.250000X0.350000X0.450000X-0.350000X0.450000X-0.350000X-0.450000X0.350000X-0.450000X0*%
%ADD36RoundRect,0.075000X0.075000X-0.700000X0.075000X0.700000X-0.075000X0.700000X-0.075000X-0.700000X0*%
%ADD37RoundRect,0.075000X0.700000X-0.075000X0.700000X0.075000X-0.700000X0.075000X-0.700000X-0.075000X0*%
%ADD38R,3.800000X2.000000*%
%ADD39R,1.500000X2.000000*%
%ADD40RoundRect,0.237500X0.287500X0.237500X-0.287500X0.237500X-0.287500X-0.237500X0.287500X-0.237500X0*%
%ADD41FreePoly0,90.000000*%
%ADD42RoundRect,0.050000X0.050000X-0.325000X0.050000X0.325000X-0.050000X0.325000X-0.050000X-0.325000X0*%
%ADD43FreePoly1,90.000000*%
%ADD44FreePoly2,90.000000*%
%ADD45RoundRect,0.050000X0.325000X-0.050000X0.325000X0.050000X-0.325000X0.050000X-0.325000X-0.050000X0*%
%ADD46FreePoly3,90.000000*%
%ADD47FreePoly4,90.000000*%
%ADD48FreePoly5,90.000000*%
%ADD49FreePoly6,90.000000*%
%ADD50FreePoly7,90.000000*%
%ADD51R,1.600000X1.750000*%
G04 APERTURE END LIST*
D10*
X112305000Y-108979100D03*
D11*
X112305000Y-107709100D03*
D12*
X165025000Y-127622000D03*
X166125000Y-127622000D03*
D13*
X167275000Y-127622000D03*
D12*
X168425000Y-127622000D03*
X169525000Y-127622000D03*
X169525000Y-125922000D03*
X169525000Y-124222000D03*
X168425000Y-124222000D03*
D13*
X167275000Y-124222000D03*
D12*
X166125000Y-124222000D03*
X165025000Y-124222000D03*
X165025000Y-125922000D03*
D13*
X167275000Y-125922000D03*
D12*
X168425000Y-125922000D03*
D14*
X171875000Y-122787500D03*
X171875000Y-124512500D03*
D15*
X117801900Y-85855100D03*
X117801900Y-89505100D03*
D16*
X123919000Y-86842600D03*
X122019000Y-86842600D03*
X122969000Y-88717600D03*
D17*
X177850000Y-122639100D03*
D18*
X177850000Y-120099100D03*
D19*
X159562500Y-113099100D03*
X161287500Y-113099100D03*
D20*
X158872000Y-66420100D03*
X158872000Y-68420100D03*
X158872000Y-67420100D03*
D21*
X158872000Y-67420100D03*
D22*
X160072000Y-66170100D03*
X160072000Y-66670100D03*
X160072000Y-67170100D03*
X160072000Y-67670100D03*
X160072000Y-68170100D03*
X160072000Y-68670100D03*
X157672000Y-68670100D03*
X157672000Y-68170100D03*
X157672000Y-67670100D03*
X157672000Y-67170100D03*
X157672000Y-66670100D03*
X157672000Y-66170100D03*
D23*
X142506000Y-78325100D03*
X138356000Y-78325100D03*
X138356000Y-80475100D03*
X142481000Y-80475100D03*
D10*
X140753000Y-108352100D03*
D11*
X140753000Y-109622100D03*
D20*
X158720700Y-83406100D03*
X158720700Y-81406100D03*
D21*
X158720700Y-82406100D03*
D20*
X158720700Y-82406100D03*
D22*
X159920700Y-81156100D03*
X159920700Y-81656100D03*
X159920700Y-82156100D03*
X159920700Y-82656100D03*
X159920700Y-83156100D03*
X159920700Y-83656100D03*
X157520700Y-83656100D03*
X157520700Y-83156100D03*
X157520700Y-82656100D03*
X157520700Y-82156100D03*
X157520700Y-81656100D03*
X157520700Y-81156100D03*
D24*
X134194000Y-60305100D03*
X134194000Y-62055100D03*
D25*
X174575000Y-106824100D03*
X172575000Y-106824100D03*
D26*
X126769000Y-82767600D03*
X126769000Y-84492600D03*
D25*
X166825000Y-118499100D03*
X164825000Y-118499100D03*
X138415000Y-69494100D03*
X140415000Y-69494100D03*
D10*
X152395700Y-68065100D03*
D11*
X152395700Y-66795100D03*
D24*
X129519000Y-60355100D03*
X129519000Y-62105100D03*
D21*
X134554300Y-122830100D03*
D20*
X134554300Y-123830100D03*
X134554300Y-121830100D03*
X134554300Y-122830100D03*
D22*
X133354300Y-124080100D03*
X133354300Y-123580100D03*
X133354300Y-123080100D03*
X133354300Y-122580100D03*
X133354300Y-122080100D03*
X133354300Y-121580100D03*
X135754300Y-121580100D03*
X135754300Y-122080100D03*
X135754300Y-122580100D03*
X135754300Y-123080100D03*
X135754300Y-123580100D03*
X135754300Y-124080100D03*
D10*
X140716300Y-122326100D03*
D11*
X140716300Y-123596100D03*
D26*
X136519000Y-72745600D03*
X136519000Y-74470600D03*
D27*
X132906500Y-70055100D03*
X134631500Y-70055100D03*
D14*
X120369000Y-66367600D03*
X120369000Y-64642600D03*
D10*
X112396000Y-123459100D03*
D11*
X112396000Y-122189100D03*
D24*
X131794000Y-60330100D03*
X131794000Y-62080100D03*
D27*
X132906500Y-71755100D03*
X134631500Y-71755100D03*
D14*
X125044000Y-84467600D03*
X125044000Y-82742600D03*
D28*
X126844000Y-86955100D03*
X126844000Y-88955100D03*
D27*
X132906500Y-77280100D03*
X134631500Y-77280100D03*
D29*
X158425000Y-117724100D03*
X158425000Y-119724100D03*
D20*
X118249700Y-122830100D03*
X118249700Y-123830100D03*
D21*
X118249700Y-122830100D03*
D20*
X118249700Y-121830100D03*
D22*
X119449700Y-121580100D03*
X119449700Y-122080100D03*
X119449700Y-122580100D03*
X119449700Y-123080100D03*
X119449700Y-123580100D03*
X119449700Y-124080100D03*
X117049700Y-124080100D03*
X117049700Y-123580100D03*
X117049700Y-123080100D03*
X117049700Y-122580100D03*
X117049700Y-122080100D03*
X117049700Y-121580100D03*
D14*
X155800000Y-123611600D03*
X155800000Y-125336600D03*
X111514000Y-80967600D03*
X111514000Y-79242600D03*
D10*
X181453000Y-67283100D03*
D11*
X181453000Y-68553100D03*
D21*
X175128000Y-67878100D03*
D20*
X175128000Y-68878100D03*
X175128000Y-66878100D03*
X175128000Y-67878100D03*
D22*
X173928000Y-69128100D03*
X173928000Y-68628100D03*
X173928000Y-68128100D03*
X173928000Y-67628100D03*
X173928000Y-67128100D03*
X173928000Y-66628100D03*
X176328000Y-66628100D03*
X176328000Y-67128100D03*
X176328000Y-67628100D03*
X176328000Y-68128100D03*
X176328000Y-68628100D03*
X176328000Y-69128100D03*
D30*
X114294000Y-67205100D03*
X114294000Y-68205100D03*
X114294000Y-69205100D03*
X114294000Y-70205100D03*
D31*
X110419000Y-65905100D03*
X110419000Y-71505100D03*
D29*
X131794000Y-66105100D03*
X131794000Y-64105100D03*
D20*
X118147000Y-107368100D03*
X118147000Y-108368100D03*
X118147000Y-109368100D03*
D21*
X118147000Y-108368100D03*
D22*
X119347000Y-107118100D03*
X119347000Y-107618100D03*
X119347000Y-108118100D03*
X119347000Y-108618100D03*
X119347000Y-109118100D03*
X119347000Y-109618100D03*
X116947000Y-109618100D03*
X116947000Y-109118100D03*
X116947000Y-108618100D03*
X116947000Y-108118100D03*
X116947000Y-107618100D03*
X116947000Y-107118100D03*
D32*
X168575000Y-109636600D03*
X169525000Y-111511600D03*
X167625000Y-111511600D03*
D33*
X114019000Y-80905100D03*
X114619000Y-80905100D03*
D34*
X115244000Y-80580100D03*
X115244000Y-79980100D03*
X115244000Y-79380100D03*
D33*
X114619000Y-79055100D03*
X114019000Y-79055100D03*
D34*
X113394000Y-79380100D03*
X113394000Y-79980100D03*
X113394000Y-80580100D03*
D17*
X177825000Y-110344100D03*
X177825000Y-112884100D03*
D18*
X177825000Y-115424100D03*
D14*
X136581000Y-80287600D03*
X136581000Y-78562600D03*
D35*
X167600000Y-114024100D03*
X169600000Y-114024100D03*
D29*
X155875000Y-117899100D03*
X155875000Y-119899100D03*
D14*
X111509000Y-84592600D03*
X111509000Y-82867600D03*
D27*
X133462500Y-82388700D03*
X135187500Y-82388700D03*
X157387500Y-113149100D03*
X155662500Y-113149100D03*
D18*
X117894000Y-61380100D03*
D17*
X120434000Y-61380100D03*
X122974000Y-61380100D03*
X125514000Y-61380100D03*
D10*
X152379300Y-82878100D03*
D11*
X152379300Y-81608100D03*
D14*
X114019000Y-84592600D03*
X114019000Y-82867600D03*
D10*
X181362000Y-81688100D03*
D11*
X181362000Y-82958100D03*
D29*
X129519000Y-66130100D03*
X129519000Y-64130100D03*
D14*
X118694000Y-66367600D03*
X118694000Y-64642600D03*
D24*
X136519000Y-60305100D03*
X136519000Y-62055100D03*
D21*
X175128000Y-82333100D03*
D20*
X175128000Y-82333100D03*
X175128000Y-81333100D03*
X175128000Y-83333100D03*
D22*
X173928000Y-83583100D03*
X173928000Y-83083100D03*
X173928000Y-82583100D03*
X173928000Y-82083100D03*
X173928000Y-81583100D03*
X173928000Y-81083100D03*
X176328000Y-81083100D03*
X176328000Y-81583100D03*
X176328000Y-82083100D03*
X176328000Y-82583100D03*
X176328000Y-83083100D03*
X176328000Y-83583100D03*
D14*
X158300000Y-123634600D03*
X158300000Y-125359600D03*
D20*
X134657000Y-109860100D03*
D21*
X134657000Y-108860100D03*
D20*
X134657000Y-107860100D03*
X134657000Y-108860100D03*
D22*
X133457000Y-110110100D03*
X133457000Y-109610100D03*
X133457000Y-109110100D03*
X133457000Y-108610100D03*
X133457000Y-108110100D03*
X133457000Y-107610100D03*
X135857000Y-107610100D03*
X135857000Y-108110100D03*
X135857000Y-108610100D03*
X135857000Y-109110100D03*
X135857000Y-109610100D03*
X135857000Y-110110100D03*
D23*
X142519000Y-74633100D03*
X138369000Y-74633100D03*
X142519000Y-72483100D03*
X138394000Y-72483100D03*
D36*
X120425000Y-80249100D03*
X120925000Y-80249100D03*
X121425000Y-80249100D03*
X121925000Y-80249100D03*
X122425000Y-80249100D03*
X122925000Y-80249100D03*
X123425000Y-80249100D03*
X123925000Y-80249100D03*
X124425000Y-80249100D03*
X124925000Y-80249100D03*
X125425000Y-80249100D03*
X125925000Y-80249100D03*
X126425000Y-80249100D03*
X126925000Y-80249100D03*
X127425000Y-80249100D03*
X127925000Y-80249100D03*
D37*
X129850000Y-78324100D03*
X129850000Y-77824100D03*
X129850000Y-77324100D03*
X129850000Y-76824100D03*
X129850000Y-76324100D03*
X129850000Y-75824100D03*
X129850000Y-75324100D03*
X129850000Y-74824100D03*
X129850000Y-74324100D03*
X129850000Y-73824100D03*
X129850000Y-73324100D03*
X129850000Y-72824100D03*
X129850000Y-72324100D03*
X129850000Y-71824100D03*
X129850000Y-71324100D03*
X129850000Y-70824100D03*
D36*
X127925000Y-68899100D03*
X127425000Y-68899100D03*
X126925000Y-68899100D03*
X126425000Y-68899100D03*
X125925000Y-68899100D03*
X125425000Y-68899100D03*
X124925000Y-68899100D03*
X124425000Y-68899100D03*
X123925000Y-68899100D03*
X123425000Y-68899100D03*
X122925000Y-68899100D03*
X122425000Y-68899100D03*
X121925000Y-68899100D03*
X121425000Y-68899100D03*
X120925000Y-68899100D03*
X120425000Y-68899100D03*
D37*
X118500000Y-70824100D03*
X118500000Y-71324100D03*
X118500000Y-71824100D03*
X118500000Y-72324100D03*
X118500000Y-72824100D03*
X118500000Y-73324100D03*
X118500000Y-73824100D03*
X118500000Y-74324100D03*
X118500000Y-74824100D03*
X118500000Y-75324100D03*
X118500000Y-75824100D03*
X118500000Y-76324100D03*
X118500000Y-76824100D03*
X118500000Y-77324100D03*
X118500000Y-77824100D03*
X118500000Y-78324100D03*
D38*
X158475000Y-104224100D03*
D39*
X160775000Y-110524100D03*
X158475000Y-110524100D03*
X156175000Y-110524100D03*
D14*
X135700000Y-85751200D03*
X135700000Y-84026200D03*
D35*
X115594000Y-74455100D03*
X113594000Y-74455100D03*
D40*
X176900000Y-106824100D03*
X178650000Y-106824100D03*
D29*
X136519000Y-66080100D03*
X136519000Y-64080100D03*
D26*
X120944000Y-82767600D03*
X120944000Y-84492600D03*
D41*
X130875000Y-87688700D03*
D42*
X131275000Y-87688700D03*
X131675000Y-87688700D03*
X132075000Y-87688700D03*
X132475000Y-87688700D03*
D43*
X132875000Y-87688700D03*
D44*
X133375000Y-87188700D03*
D45*
X133375000Y-86788700D03*
X133375000Y-86388700D03*
X133375000Y-85988700D03*
X133375000Y-85588700D03*
D46*
X133375000Y-85188700D03*
D47*
X132875000Y-84688700D03*
D42*
X132475000Y-84688700D03*
X132075000Y-84688700D03*
X131675000Y-84688700D03*
X131275000Y-84688700D03*
D48*
X130875000Y-84688700D03*
D49*
X130375000Y-85188700D03*
D45*
X130375000Y-85588700D03*
X130375000Y-85988700D03*
X130375000Y-86388700D03*
X130375000Y-86788700D03*
D50*
X130375000Y-87188700D03*
D51*
X131875000Y-86188700D03*
D26*
X135700000Y-87626200D03*
X135700000Y-89351200D03*
D19*
X115631500Y-76405100D03*
X113906500Y-76405100D03*
D29*
X134119000Y-66080100D03*
X134119000Y-64080100D03*
M02*
