G04 #@! TF.GenerationSoftware,KiCad,Pcbnew,(6.0.7)*
G04 #@! TF.CreationDate,2023-02-21T22:38:56+09:00*
G04 #@! TF.ProjectId,OmniDirectional_UAV,4f6d6e69-4469-4726-9563-74696f6e616c,rev?*
G04 #@! TF.SameCoordinates,Original*
G04 #@! TF.FileFunction,Soldermask,Bot*
G04 #@! TF.FilePolarity,Negative*
%FSLAX46Y46*%
G04 Gerber Fmt 4.6, Leading zero omitted, Abs format (unit mm)*
G04 Created by KiCad (PCBNEW (6.0.7)) date 2023-02-21 22:38:56*
%MOMM*%
%LPD*%
G01*
G04 APERTURE LIST*
G04 Aperture macros list*
%AMRoundRect*
0 Rectangle with rounded corners*
0 $1 Rounding radius*
0 $2 $3 $4 $5 $6 $7 $8 $9 X,Y pos of 4 corners*
0 Add a 4 corners polygon primitive as box body*
4,1,4,$2,$3,$4,$5,$6,$7,$8,$9,$2,$3,0*
0 Add four circle primitives for the rounded corners*
1,1,$1+$1,$2,$3*
1,1,$1+$1,$4,$5*
1,1,$1+$1,$6,$7*
1,1,$1+$1,$8,$9*
0 Add four rect primitives between the rounded corners*
20,1,$1+$1,$2,$3,$4,$5,0*
20,1,$1+$1,$4,$5,$6,$7,0*
20,1,$1+$1,$6,$7,$8,$9,0*
20,1,$1+$1,$8,$9,$2,$3,0*%
G04 Aperture macros list end*
%ADD10O,1.000000X1.000000*%
%ADD11R,1.000000X1.000000*%
%ADD12R,0.700000X1.100000*%
%ADD13R,0.800000X1.100000*%
%ADD14O,1.700000X1.700000*%
%ADD15R,1.700000X1.700000*%
%ADD16C,0.600000*%
%ADD17RoundRect,0.150000X0.150000X0.625000X-0.150000X0.625000X-0.150000X-0.625000X0.150000X-0.625000X0*%
%ADD18RoundRect,0.250000X0.350000X0.650000X-0.350000X0.650000X-0.350000X-0.650000X0.350000X-0.650000X0*%
%ADD19RoundRect,0.250000X-0.350000X-0.650000X0.350000X-0.650000X0.350000X0.650000X-0.350000X0.650000X0*%
%ADD20RoundRect,0.150000X-0.150000X-0.625000X0.150000X-0.625000X0.150000X0.625000X-0.150000X0.625000X0*%
G04 APERTURE END LIST*
D10*
X112305000Y-108979100D03*
D11*
X112305000Y-107709100D03*
D12*
X165025000Y-127622000D03*
X166125000Y-127622000D03*
D13*
X167275000Y-127622000D03*
D12*
X168425000Y-127622000D03*
X169525000Y-127622000D03*
X169525000Y-125922000D03*
X169525000Y-124222000D03*
X168425000Y-124222000D03*
D13*
X167275000Y-124222000D03*
D12*
X166125000Y-124222000D03*
X165025000Y-124222000D03*
X165025000Y-125922000D03*
D13*
X167275000Y-125922000D03*
D12*
X168425000Y-125922000D03*
D14*
X177850000Y-122639100D03*
D15*
X177850000Y-120099100D03*
D16*
X158872000Y-66420100D03*
X158872000Y-68420100D03*
X158872000Y-67420100D03*
D10*
X140753000Y-108352100D03*
D11*
X140753000Y-109622100D03*
D16*
X158720700Y-83406100D03*
X158720700Y-81406100D03*
X158720700Y-82406100D03*
D10*
X152395700Y-68065100D03*
D11*
X152395700Y-66795100D03*
D16*
X134554300Y-123830100D03*
X134554300Y-121830100D03*
X134554300Y-122830100D03*
D10*
X140716300Y-122326100D03*
D11*
X140716300Y-123596100D03*
D10*
X112396000Y-123459100D03*
D11*
X112396000Y-122189100D03*
D16*
X118249700Y-122830100D03*
X118249700Y-123830100D03*
X118249700Y-121830100D03*
D10*
X181453000Y-67283100D03*
D11*
X181453000Y-68553100D03*
D16*
X175128000Y-68878100D03*
X175128000Y-66878100D03*
X175128000Y-67878100D03*
X118147000Y-107368100D03*
X118147000Y-108368100D03*
X118147000Y-109368100D03*
D14*
X177825000Y-110344100D03*
X177825000Y-112884100D03*
D15*
X177825000Y-115424100D03*
X117894000Y-61380100D03*
D14*
X120434000Y-61380100D03*
X122974000Y-61380100D03*
X125514000Y-61380100D03*
D10*
X152379300Y-82878100D03*
D11*
X152379300Y-81608100D03*
D10*
X181362000Y-81688100D03*
D11*
X181362000Y-82958100D03*
D16*
X175128000Y-82333100D03*
X175128000Y-81333100D03*
X175128000Y-83333100D03*
X134657000Y-109860100D03*
X134657000Y-107860100D03*
X134657000Y-108860100D03*
D17*
X127675000Y-77114100D03*
X126675000Y-77114100D03*
X125675000Y-77114100D03*
X124675000Y-77114100D03*
X123675000Y-77114100D03*
X122675000Y-77114100D03*
X121675000Y-77114100D03*
X120675000Y-77114100D03*
D18*
X128975000Y-80989100D03*
X119375000Y-80989100D03*
D19*
X164200000Y-65799100D03*
X169800000Y-65799100D03*
D20*
X168500000Y-69674100D03*
X167500000Y-69674100D03*
X166500000Y-69674100D03*
X165500000Y-69674100D03*
D18*
X172538000Y-79709100D03*
X159938000Y-79709100D03*
D17*
X161238000Y-75834100D03*
X162238000Y-75834100D03*
X163238000Y-75834100D03*
X164238000Y-75834100D03*
X165238000Y-75834100D03*
X166238000Y-75834100D03*
X167238000Y-75834100D03*
X168238000Y-75834100D03*
X169238000Y-75834100D03*
X170238000Y-75834100D03*
X171238000Y-75834100D03*
D19*
X129043000Y-107747100D03*
X119443000Y-107747100D03*
D20*
X127743000Y-111622100D03*
X126743000Y-111622100D03*
X125743000Y-111622100D03*
X124743000Y-111622100D03*
X123743000Y-111622100D03*
X122743000Y-111622100D03*
X121743000Y-111622100D03*
X120743000Y-111622100D03*
D18*
X160155000Y-121839100D03*
X165755000Y-121839100D03*
D17*
X161455000Y-117964100D03*
X162455000Y-117964100D03*
X163455000Y-117964100D03*
X164455000Y-117964100D03*
D18*
X123475000Y-121149100D03*
X129075000Y-121149100D03*
D17*
X124775000Y-117274100D03*
X125775000Y-117274100D03*
X126775000Y-117274100D03*
X127775000Y-117274100D03*
D20*
X120445000Y-72002100D03*
X121445000Y-72002100D03*
X122445000Y-72002100D03*
X123445000Y-72002100D03*
X124445000Y-72002100D03*
X125445000Y-72002100D03*
X126445000Y-72002100D03*
X127445000Y-72002100D03*
X128445000Y-72002100D03*
X129445000Y-72002100D03*
X130445000Y-72002100D03*
D19*
X131745000Y-68127100D03*
X119145000Y-68127100D03*
X165755000Y-108437100D03*
X160155000Y-108437100D03*
D20*
X164455000Y-112312100D03*
X163455000Y-112312100D03*
X162455000Y-112312100D03*
X161455000Y-112312100D03*
M02*
