G04 #@! TF.GenerationSoftware,KiCad,Pcbnew,(6.0.7)*
G04 #@! TF.CreationDate,2023-02-21T22:38:56+09:00*
G04 #@! TF.ProjectId,OmniDirectional_UAV,4f6d6e69-4469-4726-9563-74696f6e616c,rev?*
G04 #@! TF.SameCoordinates,Original*
G04 #@! TF.FileFunction,Profile,NP*
%FSLAX46Y46*%
G04 Gerber Fmt 4.6, Leading zero omitted, Abs format (unit mm)*
G04 Created by KiCad (PCBNEW (6.0.7)) date 2023-02-21 22:38:56*
%MOMM*%
%LPD*%
G01*
G04 APERTURE LIST*
G04 #@! TA.AperFunction,Profile*
%ADD10C,0.200000*%
G04 #@! TD*
G04 APERTURE END LIST*
D10*
X148754576Y-104759536D02*
X148754576Y-126559536D01*
X144050000Y-104759536D02*
X148754576Y-104759536D01*
X144050000Y-126559536D02*
X144050000Y-104759536D01*
X148754576Y-126559536D02*
X144050000Y-126559536D01*
X144050000Y-85938700D02*
X144050000Y-64138700D01*
X149050000Y-85938700D02*
X144050000Y-85938700D01*
X149050000Y-64138700D02*
X149050000Y-85938700D01*
X144050000Y-64138700D02*
X149050000Y-64138700D01*
X153650000Y-89038700D02*
G75*
G03*
X153650000Y-89038700I-1100000J0D01*
G01*
X181650000Y-89038700D02*
G75*
G03*
X181650000Y-89038700I-1100000J0D01*
G01*
X181650000Y-61038700D02*
G75*
G03*
X181650000Y-61038700I-1100000J0D01*
G01*
X153650000Y-61038700D02*
G75*
G03*
X153650000Y-61038700I-1100000J0D01*
G01*
X113650000Y-129038700D02*
G75*
G03*
X113650000Y-129038700I-1100000J0D01*
G01*
X141650000Y-129038700D02*
G75*
G03*
X141650000Y-129038700I-1100000J0D01*
G01*
X141650000Y-101038700D02*
G75*
G03*
X141650000Y-101038700I-1100000J0D01*
G01*
X113650000Y-101038700D02*
G75*
G03*
X113650000Y-101038700I-1100000J0D01*
G01*
X153354576Y-101659536D02*
G75*
G03*
X153354576Y-101659536I-1100000J0D01*
G01*
X181354576Y-101659536D02*
G75*
G03*
X181354576Y-101659536I-1100000J0D01*
G01*
X181354576Y-129659536D02*
G75*
G03*
X181354576Y-129659536I-1100000J0D01*
G01*
X153354576Y-129659536D02*
G75*
G03*
X153354576Y-129659536I-1100000J0D01*
G01*
X117650000Y-90938700D02*
X119050000Y-90938700D01*
X117650000Y-97538700D02*
X117650000Y-90938700D01*
X119050000Y-97538700D02*
X117650000Y-97538700D01*
X119050000Y-99138700D02*
X119050000Y-97538700D01*
X124050000Y-99138700D02*
X119050000Y-99138700D01*
X124050000Y-97538700D02*
X124050000Y-99138700D01*
X129050000Y-97538700D02*
X124050000Y-97538700D01*
X129050000Y-99138700D02*
X129050000Y-97538700D01*
X134050000Y-99138700D02*
X129050000Y-99138700D01*
X134050000Y-97538700D02*
X134050000Y-99138700D01*
X139050000Y-97538700D02*
X134050000Y-97538700D01*
X139050000Y-99138700D02*
X139050000Y-97538700D01*
X144050000Y-99138700D02*
X139050000Y-99138700D01*
X144050000Y-103159536D02*
X144050000Y-99138700D01*
X148754576Y-103159536D02*
X144050000Y-103159536D01*
X148754576Y-98159536D02*
X148754576Y-103159536D01*
X153754576Y-98159536D02*
X148754576Y-98159536D01*
X153754576Y-99759536D02*
X153754576Y-98159536D01*
X158754576Y-99759536D02*
X153754576Y-99759536D01*
X158754576Y-98159536D02*
X158754576Y-99759536D01*
X163754576Y-98159536D02*
X158754576Y-98159536D01*
X163754576Y-99759536D02*
X163754576Y-98159536D01*
X168754576Y-99759536D02*
X163754576Y-99759536D01*
X168754576Y-98159536D02*
X168754576Y-99759536D01*
X173754576Y-98159536D02*
X168754576Y-98159536D01*
X173754576Y-99759536D02*
X173754576Y-98159536D01*
X175154576Y-99759536D02*
X173754576Y-99759536D01*
X175154576Y-92538700D02*
X175154576Y-99759536D01*
X174050000Y-92538700D02*
X175154576Y-92538700D01*
X174050000Y-90938700D02*
X174050000Y-92538700D01*
X169050000Y-90938700D02*
X174050000Y-90938700D01*
X169050000Y-92538700D02*
X169050000Y-90938700D01*
X164050000Y-92538700D02*
X169050000Y-92538700D01*
X164050000Y-90938700D02*
X164050000Y-92538700D01*
X159050000Y-90938700D02*
X164050000Y-90938700D01*
X159050000Y-92538700D02*
X159050000Y-90938700D01*
X154050000Y-92538700D02*
X159050000Y-92538700D01*
X154050000Y-90938700D02*
X154050000Y-92538700D01*
X149050000Y-90938700D02*
X154050000Y-90938700D01*
X149050000Y-87538700D02*
X149050000Y-90938700D01*
X144050000Y-87538700D02*
X149050000Y-87538700D01*
X144050000Y-92538700D02*
X144050000Y-87538700D01*
X139050000Y-92538700D02*
X144050000Y-92538700D01*
X139050000Y-90938700D02*
X139050000Y-92538700D01*
X134050000Y-90938700D02*
X139050000Y-90938700D01*
X134050000Y-92538700D02*
X134050000Y-90938700D01*
X129050000Y-92538700D02*
X134050000Y-92538700D01*
X129050000Y-90938700D02*
X129050000Y-92538700D01*
X124050000Y-90938700D02*
X129050000Y-90938700D01*
X124050000Y-92538700D02*
X124050000Y-90938700D01*
X119050000Y-92538700D02*
X124050000Y-92538700D01*
X119050000Y-90938700D02*
X119050000Y-92538700D01*
X113650000Y-61038700D02*
G75*
G03*
X113650000Y-61038700I-1100000J0D01*
G01*
X141650000Y-61038700D02*
G75*
G03*
X141650000Y-61038700I-1100000J0D01*
G01*
X141650000Y-89038700D02*
G75*
G03*
X141650000Y-89038700I-1100000J0D01*
G01*
X113650000Y-89038700D02*
G75*
G03*
X113650000Y-89038700I-1100000J0D01*
G01*
X114050000Y-92538700D02*
X109050000Y-92538700D01*
X114050000Y-90938700D02*
X114050000Y-92538700D01*
X116050000Y-90938700D02*
X114050000Y-90938700D01*
X116050000Y-97538700D02*
X116050000Y-90938700D01*
X114050000Y-97538700D02*
X116050000Y-97538700D01*
X114050000Y-99138700D02*
X114050000Y-97538700D01*
X109050000Y-99138700D02*
X114050000Y-99138700D01*
X109050000Y-130938700D02*
X109050000Y-99138700D01*
X114050000Y-130938700D02*
X109050000Y-130938700D01*
X114050000Y-132538700D02*
X114050000Y-130938700D01*
X119050000Y-132538700D02*
X114050000Y-132538700D01*
X119050000Y-130938700D02*
X119050000Y-132538700D01*
X124050000Y-130938700D02*
X119050000Y-130938700D01*
X124050000Y-132538700D02*
X124050000Y-130938700D01*
X129050000Y-132538700D02*
X124050000Y-132538700D01*
X129050000Y-130938700D02*
X129050000Y-132538700D01*
X134050000Y-130938700D02*
X129050000Y-130938700D01*
X134050000Y-132538700D02*
X134050000Y-130938700D01*
X139050000Y-132538700D02*
X134050000Y-132538700D01*
X139050000Y-130938700D02*
X139050000Y-132538700D01*
X144050000Y-130938700D02*
X139050000Y-130938700D01*
X144050000Y-128159536D02*
X144050000Y-130938700D01*
X148754576Y-128159536D02*
X144050000Y-128159536D01*
X148754576Y-133159536D02*
X148754576Y-128159536D01*
X153754576Y-133159536D02*
X148754576Y-133159536D01*
X153754576Y-131559536D02*
X153754576Y-133159536D01*
X158754576Y-131559536D02*
X153754576Y-131559536D01*
X158754576Y-133159536D02*
X158754576Y-131559536D01*
X163754576Y-133159536D02*
X158754576Y-133159536D01*
X163754576Y-131559536D02*
X163754576Y-133159536D01*
X168754576Y-131559536D02*
X163754576Y-131559536D01*
X168754576Y-133159536D02*
X168754576Y-131559536D01*
X173754576Y-133159536D02*
X168754576Y-133159536D01*
X173754576Y-131559536D02*
X173754576Y-133159536D01*
X178754576Y-131559536D02*
X173754576Y-131559536D01*
X178754576Y-133159536D02*
X178754576Y-131559536D01*
X183754576Y-133159536D02*
X178754576Y-133159536D01*
X183754576Y-98159536D02*
X183754576Y-133159536D01*
X178754576Y-98159536D02*
X183754576Y-98159536D01*
X178754576Y-99759536D02*
X178754576Y-98159536D01*
X176754576Y-99759536D02*
X178754576Y-99759536D01*
X176754576Y-92538700D02*
X176754576Y-99759536D01*
X179050000Y-92538700D02*
X176754576Y-92538700D01*
X179050000Y-90938700D02*
X179050000Y-92538700D01*
X184050000Y-90938700D02*
X179050000Y-90938700D01*
X184050000Y-59138700D02*
X184050000Y-90938700D01*
X179050000Y-59138700D02*
X184050000Y-59138700D01*
X179050000Y-57538700D02*
X179050000Y-59138700D01*
X174050000Y-57538700D02*
X179050000Y-57538700D01*
X174050000Y-59138700D02*
X174050000Y-57538700D01*
X169050000Y-59138700D02*
X174050000Y-59138700D01*
X169050000Y-57538700D02*
X169050000Y-59138700D01*
X164050000Y-57538700D02*
X169050000Y-57538700D01*
X164050000Y-59138700D02*
X164050000Y-57538700D01*
X159050000Y-59138700D02*
X164050000Y-59138700D01*
X159050000Y-57538700D02*
X159050000Y-59138700D01*
X154050000Y-57538700D02*
X159050000Y-57538700D01*
X154050000Y-59138700D02*
X154050000Y-57538700D01*
X149050000Y-59138700D02*
X154050000Y-59138700D01*
X149050000Y-62538700D02*
X149050000Y-59138700D01*
X144050000Y-62538700D02*
X149050000Y-62538700D01*
X144050000Y-57538700D02*
X144050000Y-62538700D01*
X139050000Y-57538700D02*
X144050000Y-57538700D01*
X139050000Y-59138700D02*
X139050000Y-57538700D01*
X134050000Y-59138700D02*
X139050000Y-59138700D01*
X134050000Y-57538700D02*
X134050000Y-59138700D01*
X129050000Y-57538700D02*
X134050000Y-57538700D01*
X129050000Y-59138700D02*
X129050000Y-57538700D01*
X124050000Y-59138700D02*
X129050000Y-59138700D01*
X124050000Y-57538700D02*
X124050000Y-59138700D01*
X119050000Y-57538700D02*
X124050000Y-57538700D01*
X119050000Y-59138700D02*
X119050000Y-57538700D01*
X114050000Y-59138700D02*
X119050000Y-59138700D01*
X114050000Y-57538700D02*
X114050000Y-59138700D01*
X109050000Y-57538700D02*
X114050000Y-57538700D01*
X109050000Y-92538700D02*
X109050000Y-57538700D01*
M02*
